<?xml version="1.0" standalone="no"?>
<!DOCTYPE svg PUBLIC "-//W3C//DTD SVG 20010904//EN"
 "http://www.w3.org/TR/2001/REC-SVG-20010904/DTD/svg10.dtd">
<svg version="1.0" xmlns="http://www.w3.org/2000/svg"
 width="400.000000pt" height="400.000000pt" viewBox="0 0 400.000000 400.000000"
 preserveAspectRatio="xMidYMid meet">
<metadata>
Created by potrace 1.14, written by Peter Selinger 2001-2017
</metadata>
<g transform="translate(0.000000,400.000000) scale(0.100000,-0.100000)"
fill="#000000" stroke="none">
<path d="M0 2000 l0 -2000 2000 0 2000 0 0 2000 0 2000 -2000 0 -2000 0 0
-2000z m1770 940 c121 -121 225 -220 232 -220 7 0 112 99 233 220 120 121 222
220 225 220 3 0 209 -204 459 -454 398 -398 452 -456 443 -472 -6 -11 -108
-116 -227 -234 l-216 -214 -459 459 -459 460 -458 -457 c-251 -252 -459 -458
-461 -458 -9 0 -433 425 -444 444 -9 16 46 75 443 472 250 250 457 454 461
454 5 0 107 -99 228 -220z m470 -1385 l224 -224 -224 -226 c-124 -123 -231
-225 -238 -225 -14 0 -452 436 -452 451 0 14 434 447 450 448 8 0 116 -100
240 -224z"/>
</g>
</svg>
